<?xml version="1.0" encoding="UTF-8"?>
<svg version="1.1" viewBox="0 0 2000 2000" width="500" height="500" xmlns="http://www.w3.org/2000/svg">
<path transform="translate(1186,853)" d="m0 0 4 1 14 23 12 23 9 21 7 23 5 26 2 16 1 27-2 29-5 27-6 22-10 25-14 28-10 16-13 17-11 12-2 3h-2l-2 4h-2v2l-8 7-13 11-17 12-13 8-19 11-21 9-24 8-21 5-19 3-12 1h-26l-28-2-27-5-26-8-28-12-22-12-18-12-13-10-13-12-11-11-7-8-11-13-13-20-12-22-9-20-7-20-5-17v-6l7-10 2 1 2 13 7 24 3 8 4-2 9-12 9-14 8-11 4-8v-7l-5-10v-26l8-8 11-9 13-10 3-2 5 1 5 5 10 7 5 6 4 8 7 6 4 7 1 12 4 2 8 8 11 9 3 3-1 4-12 12-6-1-1 5-6 8-3 3-6 2h-7l-12 3-11 9-4 4h-7l-9-1-1 5-17 3-8 4-6 5-3 2 1 5 10 18 14 20 8 10 9 10 12 12 11 9 14 11 15 10 20 11 29 12 26 7 30 5 16 1h15l27-2 36-7 24-8 24-11 20-11 17-12 17-14 17-16 9-11 13-16 2-3-2-8 1-5-6-10h-7l-8 3-9 2-6 5-5 6-6 2-1-5v-11l2-14v-5l-6-3-1-1-2-10-5-7-11-3-3-3-2-4-6-4-4-7-1-4h-3v9l3 8 10 2 4 4v6l-6 5-7 3h-28l-4-2v-19l-2-7-2-18-2-3v22l1 17 2 6v6l9 3 8 3-4 7-6 6-16 5-15 6-3 3-3 13-5 10-7 3-10 2-4 8-9 5-8 6-6 3-5 1h-9l-12-4-2-5 1-3v-20l2-21 8-10 3-3 2-6v-11l-1-5v-7l3-5-1-5-9-9-12-5-11-5-4-2-6-12-4-16 5-9 2-2 2-10 10-8 16-4 4-5 12-5-1-3-3-1 1-7 6-11 5 2 10 5 5-3 1-1-1-7-2-6h16v-3h-7l-7-2v-3l2-1 1-5 5-4 1-2-6 2-5 3h-6l-1-4 5-7 8-1 4-8h7l-1 14 2 6 1 12 19-2 3-9 5-2 2 5-1 4 4-1-1-9-1-4-9 1v-9l5-9 2-1 14-2 5-3 8-7 12-5h11l9 2 11 7 8 10 9 11 3 6-3 3-8-1-7-4h-2l1 5-1 5 4-2 9 1 2-3 7 1 6-8 2 1-2 10 16-2 4-1 3 3 1 2 14 2-1-6 4 2 9 10 2 4h2l3-9 3-5 9-7 3 1 1 7-5 13-5 10 1 2h2l2-4 5-6-1-5 4-7-1-8-5-17-3-3-4-1h-10l-12 3-5 3h-2l-2 12-4-1-4-7 4-6 5-4 14-6 6-1 14 3-12-26-13-23-3-5 1-9z" fill="#030303"/>
<path transform="translate(1244,664)" d="m0 0 34 1 5 3 12 16 28 34 5-2h5l6 7 5 9v2l-5 2h-4l4 7 11 14 7 9 9-1 23-5 23-3h42l15 2 7 4 1 4-5 5-17 9-19 8-25 8-29 6-17 2-2 10-7 18-2 6 9 2-1 10-4 9-10 2-11 27-13 31-5 11-20 7-13 5h-5l3-12 18-59 8-24-3-1 3-3 2-1 7-24 1-4-72 7-54 5-4 2-10 23-5 10-23 8-3-1 6-16 8-25-7-1 1 3-4-2-11-10-13-10-17-12-17-10-23-11-22-8-26-7-17-3-39-2 3 3 8 4 10 3 6-1h8l5 3 2 8 9 4 7 3-1 8 3 5 9 3 7 2 1 3-12 3-8 6-3 5-1 10-12 4-27 7-36 12-25 9h-3v-12l2-10 5-3 3-3-3-4v-4h6v-4l-4-3 1-11 1-10-4-8-5-5-12-5-2-3 1-7-10 2-18 6h-2v2l4 1 2 2 1 10 6 13 7 18v7l-2 2h-8l1 9-3 1-9-6-3-7 5-15v-7l-5-2-8-6h-4l-12 23-3 2-6-5-4-8-5 3-16 9h-2l5 14 9 10 7 16 5-2 7-6 6-16 5-5 6 1 8 9-1 9 2 2 9 1 3 2 3 18-7 4-25 13-20 12-11 6-7 6-13 7-7 6-2-8-12-4-8-4h-7l-6 5-3 9-1 8 5 4 2 1h6l3-2h4l-1 4-8 11-2 3-4-1-5-8-10-6-6-5-5-8-4 10-6 26-3 19-2 17-5 9-3 4h-2v-24l2-18 6-29 8-24 13-28 9-17 12-18 8-10 9-11 22-22 14-11 12-9 15-10 28-14 24-9 20-6 20-4 25-3h28l23 2 25 4 24 7 25 11 25 12 16 10 10 8 8 9 8 12 3 1 5-2h3l-7-13-18-27v-2l21 1 7 2 8 9 9 11 4 5 3 1 70-19 52-14h2l-13-21-4-5-9-2v-4l4-1-4-7-18-27-13-20-13-19zm-322 97-1 2 3-1z" fill="#040404"/>
<path transform="translate(948,612)" d="m0 0h55l23 2 27 5 32 8 34 12 18 8 17 9 1 1 1 12-2 1-17-9-25-11-25-9-24-6-20-4-27-4-25-2h-35l-21 2-32 5-31 7-17 5-29 12-19 9-23 13-17 11-14 10-13 10-13 11-12 11-13 13-7 8-9 11-13 18-9 13-10 17-12 23-10 22-11 31-7 27-5 27-3 27-1 20v16l2 30 5 33 7 29 11 33 11 25 8 17 15 25 14 20 11 14 12 13 7 8 6 7 8 7 7 7 8 7 15 12 22 15 25 15 25 12 28 11 25 8 25 6 27 4 32 3 18 1 44-4 26-4 25-6 25-8 19-7 29-13 18-10 19-12 18-13 11-9 10-9 8-7 17-17 7-8 12-14 12-16 10-15 14-24 12-25 8-20 8-24 8-32 4-22 2-19 1-16 1-38h10l2 4v25l-1 25-5 38-6 27-9 29-9 24-16 33-12 20-10 15-10 13-11 14-12 14-21 21-8 7-14 12-19 14-18 12-21 12-27 13-26 10-26 8-28 7-32 5-31 2h-23l-30-2-27-4-26-6-27-8-25-9-28-13-19-10-21-13-17-13-9-7-14-12-15-14-14-14-7-8-10-12-14-19-9-14-12-20-10-19-9-20-10-27-9-33-5-27-3-26-1-17v-32l2-29 4-27 6-26 6-21 11-30 16-33 10-17 10-16 14-19 11-14 8-8 7-8 11-12 8-7 8-8 14-11 19-14 19-12 27-15 26-12 24-9 28-8 27-6 26-4z" fill="#0A0A0A"/>
<path transform="translate(1121,827)" d="m0 0h6v1l-18 4-40 8-36 9-41 13-35 13-36 16-38 19-23 13-20 12-14 9-16 12-18 14-11 9-14 12-8 8-8 7-7 7-7 8-11 13-11 15-12 21-8 20-5 19-1 7v16l4 16 6 11 8 10 8 7 13 9 1 2-6-2-13-7-11-9-7-7-8-13-4-9-2-8-1-9v-13l3-19 6-21 8-18 12-20 10-14 13-16 12-13 21-21 14-11 15-12 18-13 32-21 21-12 36-18 20-9 27-10 40-13 44-11 27-5 37-4z" fill="#080808"/>
<path transform="translate(1049,1162)" d="m0 0h3l-1 6-11 13-5 6-3 1-6-3 1-5 7-13 12-3z" fill="#0E0E0E"/>
<path transform="translate(1e3 880)" d="m0 0 5 2 3 9-15 1-7-4-1-3 6-4z" fill="#0D0D0D"/>
<path transform="translate(1156,936)" d="m0 0 3 1-2 4-2-1z" fill="#484848"/>
</svg>
