<svg xmlns="http://www.w3.org/2000/svg" shape-rendering="geometricPrecision" text-rendering="geometricPrecision" image-rendering="optimizeQuality" fill-rule="evenodd" clip-rule="evenodd" viewBox="0 0 512 509.119"><path fill="#CED7DE" d="M463.139 284.262l-68.965-55.2c-6.319-5.06-15.65-4.021-20.705 2.298l-38.66 48.321 91.156 74.573 39.469-49.286c5.064-6.326 4.03-15.641-2.295-20.706z"/><path fill="#DBE2E7" d="M463.139 284.262l-35.383-28.321-47.681 60.788.002.002 45.975 37.612 39.382-49.375c5.053-6.334 4.027-15.643-2.295-20.706z"/><path fill="#CED7DE" d="M226.468 47.607l54.461 68.042c4.995 6.242 3.976 15.431-2.266 20.426l-48.454 38.784-74.634-89.107 50.465-40.409c6.242-4.997 15.432-3.976 20.428 2.264z"/><path fill="#DBE2E7" d="M226.47 47.607l25.338 31.659-61.121 48.417-35.112-41.931 50.465-40.411c6.242-4.997 15.431-3.974 20.43 2.266z"/><path fill="#CA2F38" d="M85.368 139.704c16.658-14.565 49.808-38.91 70.207-53.952l74.632 89.111c-40.322 31.363-108.081 71.127-113.286 123.557-5.348 53.889 44.035 101.443 97.704 94.274 47.39-6.325 92.141-74.636 120.186-113.014l91.251 74.653c-15.042 20.4-41.926 52.913-56.493 69.573-207.855 237.763-522.486-75.888-284.201-284.202z"/><path fill="#DF333E" d="M85.368 139.704c16.658-14.565 49.808-38.91 70.207-53.952l35.117 41.937C21.045 259.646 39.807 352.989 97.849 410.84c58.185 57.997 166.377 82.084 282.227-94.112l45.986 37.605c-15.042 20.4-41.926 52.913-56.493 69.573-207.855 237.763-522.486-75.888-284.201-284.202z"/><path fill="#FFCB25" d="M511.614 164.009c1-1.426-.071-2.791-1.83-2.422l-77.866 15.887c-5.495.841-5.678 2.793-1.829 7.442 6.619 8.002 21.007 21.167 24.72 24.779l-29.636 28.76c-1.043 1.013-2.064 1.904-1.031 3.534 1.017 1.609 2.469 1.19 3.939.873l76.221-15.221c6.289-1.403 6.831-3.698 3.078-6.912l-26.711-26.867 30.945-29.853zM350.089 2.483c1-1.426-.071-2.791-1.831-2.422l-77.865 15.887c-5.495.84-5.679 2.793-1.829 7.443 6.617 8.001 21.006 21.164 24.72 24.779l-29.637 28.759c-1.043 1.013-2.066 1.904-1.031 3.534 1.016 1.61 2.467 1.191 3.939.873l76.22-15.221c6.291-1.403 6.832-3.698 3.079-6.912l-26.711-26.866 30.946-29.854z"/><path fill="#FFAF39" d="M511.617 164.009c.997-1.426-.074-2.791-1.835-2.422l-66.791 13.629c-2.629 1.086-2.105 3.076.935 6.753 6.619 7.998 21.008 21.165 24.722 24.778l-29.636 28.759c-1.044 1.011-2.064 1.906-1.032 3.531 1.018 1.612 2.469 1.196 3.939.875l64.718-12.923c4.022-1.423 3.962-3.502.745-6.26l-26.713-26.867 30.948-29.853zM350.091 2.483c.998-1.426-.073-2.791-1.835-2.422l-66.792 13.627c-2.627 1.089-2.104 3.078.936 6.754 6.619 7.999 21.009 21.166 24.722 24.779L277.486 73.98c-1.043 1.011-2.064 1.906-1.032 3.532 1.018 1.611 2.47 1.195 3.939.873l64.718-12.922c4.022-1.422 3.963-3.502.743-6.26l-26.711-26.868 30.948-29.852z"/></svg>